<svg xmlns="http://www.w3.org/2000/svg" width="20" height="20" viewBox="0 0 20 20" fill="currentColor" aria-hidden="true"><path d="M8.223 2.458c.483 0 .875.392.875.875v13.333a.875.875 0 0 1-1.75 0V3.333c0-.483.391-.875.875-.875M12.444 4.625c.484 0 .875.392.875.875v8.333a.875.875 0 0 1-1.75 0V5.5c0-.483.392-.875.875-.875M4 6.958c.483 0 .875.392.875.875v4.333a.875.875 0 0 1-1.75 0V7.833c0-.483.392-.875.875-.875M16.667 7.458c.483 0 .875.392.875.875v3.333a.876.876 0 0 1-1.75 0V8.333c0-.483.392-.875.875-.875"/></svg>
